# xmcd
#
# Track frame offsets:
#	150
#	22710
#	37752
#	57427
#	75382
#	100970
#	115990
#	135187
#	154577
#	172450
#	194747
#	209235
#	225625
#	248085
#
# Disc length: 3567 seconds
#
# Revision: 1
# Processed by: cddbd v1.5PL3 Copyright (c) Steve Scherf et al.
# Submitted via: CDex 1.50Beta5
#
DISCID=b70ded0e
DTITLE=狩人 - ベスト’80
DYEAR=1997
DGENRE=Pop
TTITLE0=あずさ2号
TTITLE1=クイーン・オブ・シックスティーン
TTITLE2=コスモス街道
TTITLE3=ブラックサンシャイン
TTITLE4=ミッドナイト・ドライバー
TTITLE5=風が吹けば
TTITLE6=君はもうアメリカへ行かないのですか
TTITLE7=白馬山麓
TTITLE8=ラブ・イズ・ローリング
TTITLE9=みちのく夏愁
TTITLE10=アメリカ橋
TTITLE11=女にかえる秋
TTITLE12=カラオケ あずさ2号
TTITLE13=カラオケ コスモス街道
EXTD=
EXTT0=
EXTT1=
EXTT2=
EXTT3=
EXTT4=
EXTT5=
EXTT6=
EXTT7=
EXTT8=
EXTT9=
EXTT10=
EXTT11=
EXTT12=
EXTT13=
PLAYORDER=
